<mxfile host="app.diagrams.net" agent="Mozilla/5.0 (Windows NT 10.0; Win64; x64) AppleWebKit/537.36 (KHTML, like Gecko) Chrome/134.0.0.0 Safari/537.36 Edg/134.0.0.0" version="26.1.0" pages="2">
  <diagram name="第 1 页" id="rtrQD04AlGpNp9uNblVF">
    <mxGraphModel dx="1806" dy="1927" grid="0" gridSize="10" guides="1" tooltips="1" connect="1" arrows="1" fold="1" page="0" pageScale="1" pageWidth="827" pageHeight="1169" math="0" shadow="0">
      <root>
        <mxCell id="0" />
        <mxCell id="1" parent="0" />
        <mxCell id="9R-iP_darnS3Hs4nh-VA-5" value="" style="edgeStyle=none;curved=1;rounded=0;orthogonalLoop=1;jettySize=auto;html=1;fontSize=12;startSize=8;endSize=8;" edge="1" parent="1">
          <mxGeometry relative="1" as="geometry">
            <mxPoint x="-64" y="-602.0000000000001" as="sourcePoint" />
            <mxPoint x="-64" y="-481.9999999999999" as="targetPoint" />
          </mxGeometry>
        </mxCell>
        <mxCell id="9R-iP_darnS3Hs4nh-VA-3" value="&lt;div&gt;风力发电机组单机侧&lt;/div&gt;&lt;div&gt;分散式控制功能接口开放&lt;/div&gt;" style="rounded=0;whiteSpace=wrap;html=1;" vertex="1" parent="1">
          <mxGeometry x="-98" y="-662" width="120" height="60" as="geometry" />
        </mxCell>
        <mxCell id="bCZ2xpbBdq8uaFE58eSO-12" value="" style="edgeStyle=none;curved=1;rounded=0;orthogonalLoop=1;jettySize=auto;html=1;fontSize=12;startSize=8;endSize=8;startArrow=classic;startFill=1;" edge="1" parent="1" source="9R-iP_darnS3Hs4nh-VA-4" target="bCZ2xpbBdq8uaFE58eSO-11">
          <mxGeometry relative="1" as="geometry" />
        </mxCell>
        <mxCell id="bCZ2xpbBdq8uaFE58eSO-38" style="edgeStyle=none;curved=1;rounded=0;orthogonalLoop=1;jettySize=auto;html=1;exitX=0.75;exitY=0;exitDx=0;exitDy=0;entryX=0.75;entryY=1;entryDx=0;entryDy=0;fontSize=12;startSize=8;endSize=8;" edge="1" parent="1" source="9R-iP_darnS3Hs4nh-VA-4" target="9R-iP_darnS3Hs4nh-VA-3">
          <mxGeometry relative="1" as="geometry" />
        </mxCell>
        <mxCell id="9R-iP_darnS3Hs4nh-VA-4" value="&lt;div&gt;接口层&lt;/div&gt;&lt;div&gt;多台机组数据交互&lt;/div&gt;" style="rounded=0;whiteSpace=wrap;html=1;" vertex="1" parent="1">
          <mxGeometry x="-98" y="-482" width="120" height="60" as="geometry" />
        </mxCell>
        <mxCell id="bCZ2xpbBdq8uaFE58eSO-1" style="edgeStyle=none;curved=1;rounded=0;orthogonalLoop=1;jettySize=auto;html=1;entryX=0;entryY=0.5;entryDx=0;entryDy=0;fontSize=12;startSize=8;endSize=8;" edge="1" parent="1" source="9R-iP_darnS3Hs4nh-VA-14" target="9R-iP_darnS3Hs4nh-VA-19">
          <mxGeometry relative="1" as="geometry" />
        </mxCell>
        <mxCell id="bCZ2xpbBdq8uaFE58eSO-2" style="edgeStyle=none;curved=1;rounded=0;orthogonalLoop=1;jettySize=auto;html=1;entryX=0;entryY=0.5;entryDx=0;entryDy=0;fontSize=12;startSize=8;endSize=8;" edge="1" parent="1" source="9R-iP_darnS3Hs4nh-VA-14" target="9R-iP_darnS3Hs4nh-VA-27">
          <mxGeometry relative="1" as="geometry" />
        </mxCell>
        <mxCell id="9R-iP_darnS3Hs4nh-VA-14" value="&lt;span style=&quot;font-size: 16px; text-wrap-mode: nowrap;&quot;&gt;分散式控制模式&lt;/span&gt;" style="rounded=0;whiteSpace=wrap;html=1;" vertex="1" parent="1">
          <mxGeometry x="-64" y="72" width="122" height="60" as="geometry" />
        </mxCell>
        <mxCell id="bCZ2xpbBdq8uaFE58eSO-6" value="" style="edgeStyle=none;curved=1;rounded=0;orthogonalLoop=1;jettySize=auto;html=1;fontSize=12;startSize=8;endSize=8;" edge="1" parent="1" source="9R-iP_darnS3Hs4nh-VA-19" target="bCZ2xpbBdq8uaFE58eSO-5">
          <mxGeometry relative="1" as="geometry" />
        </mxCell>
        <mxCell id="bCZ2xpbBdq8uaFE58eSO-8" style="edgeStyle=none;curved=1;rounded=0;orthogonalLoop=1;jettySize=auto;html=1;entryX=0;entryY=0.5;entryDx=0;entryDy=0;fontSize=12;startSize=8;endSize=8;" edge="1" parent="1" source="9R-iP_darnS3Hs4nh-VA-19" target="bCZ2xpbBdq8uaFE58eSO-7">
          <mxGeometry relative="1" as="geometry" />
        </mxCell>
        <mxCell id="9R-iP_darnS3Hs4nh-VA-19" value="发电性能提升" style="rounded=0;whiteSpace=wrap;html=1;" vertex="1" parent="1">
          <mxGeometry x="140" y="-61" width="120" height="60" as="geometry" />
        </mxCell>
        <mxCell id="bCZ2xpbBdq8uaFE58eSO-10" value="" style="edgeStyle=none;curved=1;rounded=0;orthogonalLoop=1;jettySize=auto;html=1;fontSize=12;startSize=8;endSize=8;" edge="1" parent="1" source="9R-iP_darnS3Hs4nh-VA-27" target="bCZ2xpbBdq8uaFE58eSO-9">
          <mxGeometry relative="1" as="geometry" />
        </mxCell>
        <mxCell id="9R-iP_darnS3Hs4nh-VA-27" value="可利用率" style="rounded=0;whiteSpace=wrap;html=1;" vertex="1" parent="1">
          <mxGeometry x="140" y="211" width="120" height="60" as="geometry" />
        </mxCell>
        <mxCell id="bCZ2xpbBdq8uaFE58eSO-5" value="单机&lt;div&gt;偏航对风优化&lt;/div&gt;" style="rounded=0;whiteSpace=wrap;html=1;" vertex="1" parent="1">
          <mxGeometry x="371" y="-130" width="120" height="60" as="geometry" />
        </mxCell>
        <mxCell id="bCZ2xpbBdq8uaFE58eSO-7" value="整场&lt;div&gt;尾流优化&lt;/div&gt;" style="rounded=0;whiteSpace=wrap;html=1;" vertex="1" parent="1">
          <mxGeometry x="371" y="17" width="120" height="60" as="geometry" />
        </mxCell>
        <mxCell id="bCZ2xpbBdq8uaFE58eSO-9" value="部件健康度&lt;div&gt;对比分析&lt;/div&gt;" style="rounded=0;whiteSpace=wrap;html=1;" vertex="1" parent="1">
          <mxGeometry x="380" y="211" width="120" height="60" as="geometry" />
        </mxCell>
        <mxCell id="bCZ2xpbBdq8uaFE58eSO-11" value="&lt;div&gt;控制层&lt;/div&gt;&lt;div&gt;基于发电性能及可利用率的分散式控制决策执行&lt;/div&gt;" style="rounded=0;whiteSpace=wrap;html=1;" vertex="1" parent="1">
          <mxGeometry x="-98" y="-302" width="120" height="60" as="geometry" />
        </mxCell>
        <mxCell id="bCZ2xpbBdq8uaFE58eSO-19" style="edgeStyle=orthogonalEdgeStyle;rounded=0;orthogonalLoop=1;jettySize=auto;html=1;fontSize=12;startSize=8;endSize=8;entryX=0;entryY=0.5;entryDx=0;entryDy=0;" edge="1" parent="1" source="bCZ2xpbBdq8uaFE58eSO-13" target="bCZ2xpbBdq8uaFE58eSO-20">
          <mxGeometry relative="1" as="geometry">
            <mxPoint x="-198" y="405.25" as="targetPoint" />
            <Array as="points">
              <mxPoint x="-287" y="549" />
              <mxPoint x="-287" y="428" />
              <mxPoint x="-258" y="428" />
            </Array>
          </mxGeometry>
        </mxCell>
        <mxCell id="bCZ2xpbBdq8uaFE58eSO-26" style="edgeStyle=orthogonalEdgeStyle;rounded=0;orthogonalLoop=1;jettySize=auto;html=1;fontSize=12;startSize=8;endSize=8;" edge="1" parent="1" source="bCZ2xpbBdq8uaFE58eSO-13" target="bCZ2xpbBdq8uaFE58eSO-27">
          <mxGeometry relative="1" as="geometry">
            <mxPoint x="-269.42105263157896" y="685.8421052631579" as="targetPoint" />
            <Array as="points">
              <mxPoint x="-287" y="549" />
              <mxPoint x="-287" y="668" />
            </Array>
          </mxGeometry>
        </mxCell>
        <mxCell id="bCZ2xpbBdq8uaFE58eSO-13" value="分散式控制模式" style="whiteSpace=wrap;html=1;" vertex="1" parent="1">
          <mxGeometry x="-488" y="519" width="120" height="60" as="geometry" />
        </mxCell>
        <mxCell id="bCZ2xpbBdq8uaFE58eSO-28" value="" style="edgeStyle=orthogonalEdgeStyle;rounded=0;orthogonalLoop=1;jettySize=auto;html=1;fontSize=12;startSize=8;endSize=8;" edge="1" parent="1" source="bCZ2xpbBdq8uaFE58eSO-20" target="bCZ2xpbBdq8uaFE58eSO-21">
          <mxGeometry relative="1" as="geometry" />
        </mxCell>
        <mxCell id="bCZ2xpbBdq8uaFE58eSO-30" style="edgeStyle=orthogonalEdgeStyle;rounded=0;orthogonalLoop=1;jettySize=auto;html=1;entryX=0;entryY=0.5;entryDx=0;entryDy=0;fontSize=12;startSize=8;endSize=8;" edge="1" parent="1" source="bCZ2xpbBdq8uaFE58eSO-20" target="bCZ2xpbBdq8uaFE58eSO-29">
          <mxGeometry relative="1" as="geometry" />
        </mxCell>
        <mxCell id="bCZ2xpbBdq8uaFE58eSO-20" value="发电性能提升模块" style="rounded=0;whiteSpace=wrap;html=1;" vertex="1" parent="1">
          <mxGeometry x="-258" y="399" width="120" height="60" as="geometry" />
        </mxCell>
        <mxCell id="bCZ2xpbBdq8uaFE58eSO-21" value="偏航对风优化" style="rounded=0;whiteSpace=wrap;html=1;" vertex="1" parent="1">
          <mxGeometry x="-73" y="339" width="120" height="60" as="geometry" />
        </mxCell>
        <mxCell id="bCZ2xpbBdq8uaFE58eSO-23" value="偏航对风优化" style="rounded=0;whiteSpace=wrap;html=1;" vertex="1" parent="1">
          <mxGeometry x="391" y="-110" width="120" height="60" as="geometry" />
        </mxCell>
        <mxCell id="bCZ2xpbBdq8uaFE58eSO-32" value="" style="edgeStyle=orthogonalEdgeStyle;rounded=0;orthogonalLoop=1;jettySize=auto;html=1;fontSize=12;startSize=8;endSize=8;" edge="1" parent="1" source="bCZ2xpbBdq8uaFE58eSO-27" target="bCZ2xpbBdq8uaFE58eSO-31">
          <mxGeometry relative="1" as="geometry" />
        </mxCell>
        <mxCell id="bCZ2xpbBdq8uaFE58eSO-34" style="edgeStyle=orthogonalEdgeStyle;rounded=0;orthogonalLoop=1;jettySize=auto;html=1;entryX=0;entryY=0.5;entryDx=0;entryDy=0;fontSize=12;startSize=8;endSize=8;" edge="1" parent="1" source="bCZ2xpbBdq8uaFE58eSO-27" target="bCZ2xpbBdq8uaFE58eSO-33">
          <mxGeometry relative="1" as="geometry" />
        </mxCell>
        <mxCell id="bCZ2xpbBdq8uaFE58eSO-27" value="可利用率提升模块" style="rounded=0;whiteSpace=wrap;html=1;" vertex="1" parent="1">
          <mxGeometry x="-258.00105263157894" y="639.0021052631579" width="120" height="60" as="geometry" />
        </mxCell>
        <mxCell id="bCZ2xpbBdq8uaFE58eSO-29" value="尾流优化" style="rounded=0;whiteSpace=wrap;html=1;" vertex="1" parent="1">
          <mxGeometry x="-73" y="459" width="120" height="60" as="geometry" />
        </mxCell>
        <mxCell id="bCZ2xpbBdq8uaFE58eSO-31" value="设备健康度对比预警" style="rounded=0;whiteSpace=wrap;html=1;" vertex="1" parent="1">
          <mxGeometry x="-73.00105263157894" y="579.0021052631579" width="120" height="60" as="geometry" />
        </mxCell>
        <mxCell id="bCZ2xpbBdq8uaFE58eSO-33" value="智能检修排班" style="rounded=0;whiteSpace=wrap;html=1;" vertex="1" parent="1">
          <mxGeometry x="-73.00105263157894" y="699.0021052631579" width="120" height="60" as="geometry" />
        </mxCell>
        <mxCell id="bCZ2xpbBdq8uaFE58eSO-37" style="edgeStyle=none;curved=1;rounded=0;orthogonalLoop=1;jettySize=auto;html=1;fontSize=12;startSize=8;endSize=8;startArrow=classic;startFill=1;" edge="1" parent="1" source="bCZ2xpbBdq8uaFE58eSO-35" target="9R-iP_darnS3Hs4nh-VA-4">
          <mxGeometry relative="1" as="geometry" />
        </mxCell>
        <mxCell id="bCZ2xpbBdq8uaFE58eSO-35" value="监控层&lt;div&gt;机组运行数据监控&lt;/div&gt;" style="whiteSpace=wrap;html=1;" vertex="1" parent="1">
          <mxGeometry x="-288" y="-482" width="120" height="60" as="geometry" />
        </mxCell>
        <mxCell id="bCZ2xpbBdq8uaFE58eSO-39" value="&lt;font style=&quot;font-size: 12px;&quot;&gt;数据回传&lt;/font&gt;" style="text;html=1;align=center;verticalAlign=middle;resizable=0;points=[];autosize=1;strokeColor=none;fillColor=none;fontSize=16;" vertex="1" parent="1">
          <mxGeometry x="-138" y="-557" width="66" height="31" as="geometry" />
        </mxCell>
        <mxCell id="bCZ2xpbBdq8uaFE58eSO-40" value="&lt;font style=&quot;font-size: 12px;&quot;&gt;指令下发&lt;/font&gt;" style="text;html=1;align=center;verticalAlign=middle;resizable=0;points=[];autosize=1;strokeColor=none;fillColor=none;fontSize=16;" vertex="1" parent="1">
          <mxGeometry x="1" y="-557" width="66" height="31" as="geometry" />
        </mxCell>
        <mxCell id="bCZ2xpbBdq8uaFE58eSO-44" value="" style="edgeStyle=none;curved=1;rounded=0;orthogonalLoop=1;jettySize=auto;html=1;fontSize=12;startSize=8;endSize=8;" edge="1" parent="1" source="bCZ2xpbBdq8uaFE58eSO-42" target="bCZ2xpbBdq8uaFE58eSO-43">
          <mxGeometry relative="1" as="geometry" />
        </mxCell>
        <mxCell id="bCZ2xpbBdq8uaFE58eSO-42" value="开始" style="html=1;dashed=0;whiteSpace=wrap;shape=mxgraph.dfd.start" vertex="1" parent="1">
          <mxGeometry x="-535" y="904" width="80" height="30" as="geometry" />
        </mxCell>
        <mxCell id="bCZ2xpbBdq8uaFE58eSO-46" value="" style="edgeStyle=none;curved=1;rounded=0;orthogonalLoop=1;jettySize=auto;html=1;fontSize=12;startSize=8;endSize=8;" edge="1" parent="1" source="bCZ2xpbBdq8uaFE58eSO-43" target="bCZ2xpbBdq8uaFE58eSO-45">
          <mxGeometry relative="1" as="geometry" />
        </mxCell>
        <mxCell id="bCZ2xpbBdq8uaFE58eSO-43" value="目标机组群内历史运行数据分析" style="whiteSpace=wrap;html=1;dashed=0;" vertex="1" parent="1">
          <mxGeometry x="-555" y="1039" width="120" height="60" as="geometry" />
        </mxCell>
        <mxCell id="bCZ2xpbBdq8uaFE58eSO-48" value="" style="edgeStyle=none;curved=1;rounded=0;orthogonalLoop=1;jettySize=auto;html=1;fontSize=12;startSize=8;endSize=8;" edge="1" parent="1" source="bCZ2xpbBdq8uaFE58eSO-45" target="bCZ2xpbBdq8uaFE58eSO-47">
          <mxGeometry relative="1" as="geometry" />
        </mxCell>
        <mxCell id="bCZ2xpbBdq8uaFE58eSO-60" value="Y" style="edgeLabel;html=1;align=center;verticalAlign=middle;resizable=0;points=[];fontSize=12;" vertex="1" connectable="0" parent="bCZ2xpbBdq8uaFE58eSO-48">
          <mxGeometry x="-0.0349" relative="1" as="geometry">
            <mxPoint as="offset" />
          </mxGeometry>
        </mxCell>
        <mxCell id="bCZ2xpbBdq8uaFE58eSO-53" value="" style="edgeStyle=none;curved=1;rounded=0;orthogonalLoop=1;jettySize=auto;html=1;fontSize=12;startSize=8;endSize=8;" edge="1" parent="1" source="bCZ2xpbBdq8uaFE58eSO-45" target="bCZ2xpbBdq8uaFE58eSO-54">
          <mxGeometry relative="1" as="geometry">
            <mxPoint x="-295" y="1241" as="targetPoint" />
          </mxGeometry>
        </mxCell>
        <mxCell id="bCZ2xpbBdq8uaFE58eSO-59" value="N" style="edgeLabel;html=1;align=center;verticalAlign=middle;resizable=0;points=[];fontSize=12;" vertex="1" connectable="0" parent="bCZ2xpbBdq8uaFE58eSO-53">
          <mxGeometry x="-0.0794" relative="1" as="geometry">
            <mxPoint as="offset" />
          </mxGeometry>
        </mxCell>
        <mxCell id="bCZ2xpbBdq8uaFE58eSO-45" value="目标机群&lt;div&gt;是否发电性能最优？&lt;/div&gt;" style="rhombus;whiteSpace=wrap;html=1;dashed=0;" vertex="1" parent="1">
          <mxGeometry x="-575" y="1204" width="160" height="74" as="geometry" />
        </mxCell>
        <mxCell id="bCZ2xpbBdq8uaFE58eSO-65" value="" style="edgeStyle=none;curved=1;rounded=0;orthogonalLoop=1;jettySize=auto;html=1;fontSize=12;startSize=8;endSize=8;" edge="1" parent="1" source="bCZ2xpbBdq8uaFE58eSO-47">
          <mxGeometry relative="1" as="geometry">
            <mxPoint x="-355" y="1434.9999999999995" as="targetPoint" />
          </mxGeometry>
        </mxCell>
        <mxCell id="bCZ2xpbBdq8uaFE58eSO-69" value="N" style="edgeLabel;html=1;align=center;verticalAlign=middle;resizable=0;points=[];fontSize=12;" vertex="1" connectable="0" parent="bCZ2xpbBdq8uaFE58eSO-65">
          <mxGeometry x="-0.0793" y="1" relative="1" as="geometry">
            <mxPoint as="offset" />
          </mxGeometry>
        </mxCell>
        <mxCell id="bCZ2xpbBdq8uaFE58eSO-68" style="edgeStyle=none;curved=1;rounded=0;orthogonalLoop=1;jettySize=auto;html=1;fontSize=12;startSize=8;endSize=8;" edge="1" parent="1" source="bCZ2xpbBdq8uaFE58eSO-47" target="bCZ2xpbBdq8uaFE58eSO-67">
          <mxGeometry relative="1" as="geometry" />
        </mxCell>
        <mxCell id="bCZ2xpbBdq8uaFE58eSO-73" value="Y" style="edgeLabel;html=1;align=center;verticalAlign=middle;resizable=0;points=[];fontSize=12;" vertex="1" connectable="0" parent="bCZ2xpbBdq8uaFE58eSO-68">
          <mxGeometry x="-0.0181" y="-1" relative="1" as="geometry">
            <mxPoint as="offset" />
          </mxGeometry>
        </mxCell>
        <mxCell id="bCZ2xpbBdq8uaFE58eSO-47" value="目标机群&lt;div&gt;设备是否健康？&lt;/div&gt;" style="rhombus;whiteSpace=wrap;html=1;dashed=0;" vertex="1" parent="1">
          <mxGeometry x="-575" y="1398" width="160" height="74" as="geometry" />
        </mxCell>
        <mxCell id="bCZ2xpbBdq8uaFE58eSO-56" value="" style="edgeStyle=none;curved=1;rounded=0;orthogonalLoop=1;jettySize=auto;html=1;fontSize=12;startSize=8;endSize=8;" edge="1" parent="1" source="bCZ2xpbBdq8uaFE58eSO-54" target="bCZ2xpbBdq8uaFE58eSO-55">
          <mxGeometry relative="1" as="geometry" />
        </mxCell>
        <mxCell id="bCZ2xpbBdq8uaFE58eSO-54" value="单机偏航对风对比分析" style="rounded=0;whiteSpace=wrap;html=1;" vertex="1" parent="1">
          <mxGeometry x="-355" y="1211" width="120" height="60" as="geometry" />
        </mxCell>
        <mxCell id="bCZ2xpbBdq8uaFE58eSO-58" value="" style="edgeStyle=none;curved=1;rounded=0;orthogonalLoop=1;jettySize=auto;html=1;fontSize=12;startSize=8;endSize=8;" edge="1" parent="1" source="bCZ2xpbBdq8uaFE58eSO-55" target="bCZ2xpbBdq8uaFE58eSO-57">
          <mxGeometry relative="1" as="geometry" />
        </mxCell>
        <mxCell id="bCZ2xpbBdq8uaFE58eSO-55" value="区域尾流计算" style="rounded=0;whiteSpace=wrap;html=1;" vertex="1" parent="1">
          <mxGeometry x="-179" y="1211" width="120" height="60" as="geometry" />
        </mxCell>
        <mxCell id="bCZ2xpbBdq8uaFE58eSO-61" style="edgeStyle=orthogonalEdgeStyle;rounded=0;orthogonalLoop=1;jettySize=auto;html=1;entryX=0.5;entryY=0;entryDx=0;entryDy=0;fontSize=12;startSize=8;endSize=8;" edge="1" parent="1" source="bCZ2xpbBdq8uaFE58eSO-57" target="bCZ2xpbBdq8uaFE58eSO-47">
          <mxGeometry relative="1" as="geometry">
            <Array as="points">
              <mxPoint x="57" y="1362" />
              <mxPoint x="-495" y="1362" />
            </Array>
          </mxGeometry>
        </mxCell>
        <mxCell id="bCZ2xpbBdq8uaFE58eSO-57" value="目标机群最优发电性能调节" style="rounded=0;whiteSpace=wrap;html=1;" vertex="1" parent="1">
          <mxGeometry x="-3" y="1211" width="120" height="60" as="geometry" />
        </mxCell>
        <mxCell id="bCZ2xpbBdq8uaFE58eSO-67" value="开始" style="html=1;dashed=0;whiteSpace=wrap;shape=mxgraph.dfd.start" vertex="1" parent="1">
          <mxGeometry x="-535" y="1599" width="80" height="30" as="geometry" />
        </mxCell>
        <mxCell id="bCZ2xpbBdq8uaFE58eSO-70" value="结合风功率预测&lt;div&gt;智能检修排班&lt;/div&gt;" style="whiteSpace=wrap;html=1;dashed=0;" vertex="1" parent="1">
          <mxGeometry x="-355" y="1405" width="120" height="60" as="geometry" />
        </mxCell>
        <mxCell id="bCZ2xpbBdq8uaFE58eSO-72" style="edgeStyle=orthogonalEdgeStyle;rounded=0;orthogonalLoop=1;jettySize=auto;html=1;entryX=0.5;entryY=0.5;entryDx=0;entryDy=-15;entryPerimeter=0;fontSize=12;startSize=8;endSize=8;" edge="1" parent="1" source="bCZ2xpbBdq8uaFE58eSO-70" target="bCZ2xpbBdq8uaFE58eSO-67">
          <mxGeometry relative="1" as="geometry">
            <Array as="points">
              <mxPoint x="-295" y="1551" />
              <mxPoint x="-495" y="1551" />
            </Array>
          </mxGeometry>
        </mxCell>
      </root>
    </mxGraphModel>
  </diagram>
  <diagram id="feUiQwss2ZWe9FPXe5Dv" name="第 2 页">
    <mxGraphModel dx="1426" dy="797" grid="0" gridSize="10" guides="1" tooltips="1" connect="1" arrows="1" fold="1" page="0" pageScale="1" pageWidth="827" pageHeight="1169" math="0" shadow="0">
      <root>
        <mxCell id="0" />
        <mxCell id="1" parent="0" />
      </root>
    </mxGraphModel>
  </diagram>
</mxfile>
